<svg id="visual" viewBox="0 0 900 600" width="900" height="600" xmlns="http://www.w3.org/2000/svg" xmlns:xlink="http://www.w3.org/1999/xlink" version="1.1"><rect x="0" y="0" width="900" height="600" fill="#170ba6"></rect><path d="M0 408L16.7 424.8C33.3 441.7 66.7 475.3 100 482.2C133.3 489 166.7 469 200 472.2C233.3 475.3 266.7 501.7 300 516.7C333.3 531.7 366.7 535.3 400 526.7C433.3 518 466.7 497 500 474.8C533.3 452.7 566.7 429.3 600 436C633.3 442.7 666.7 479.3 700 489.8C733.3 500.3 766.7 484.7 800 480.8C833.3 477 866.7 485 883.3 489L900 493L900 601L883.3 601C866.7 601 833.3 601 800 601C766.7 601 733.3 601 700 601C666.7 601 633.3 601 600 601C566.7 601 533.3 601 500 601C466.7 601 433.3 601 400 601C366.7 601 333.3 601 300 601C266.7 601 233.3 601 200 601C166.7 601 133.3 601 100 601C66.7 601 33.3 601 16.7 601L0 601Z" fill="#ffffff" stroke-linecap="round" stroke-linejoin="miter"></path></svg>